<svg aria-hidden="true" style="position: absolute; width: 0; height: 0; overflow: hidden;" version="1.1" xmlns="http://www.w3.org/2000/svg" xmlns:xlink="http://www.w3.org/1999/xlink">
<defs>
<symbol id="icon-crop" viewBox="0 0 24 24">
<title>crop</title>
<path d="M6.984 17.016h16.031v1.969h-4.031v4.031h-1.969v-4.031h-10.031c-1.078 0-1.969-0.891-1.969-1.969v-10.031h-4.031v-1.969h4.031v-4.031h1.969v16.031zM17.016 15v-8.016h-8.016v-1.969h8.016c1.078 0 1.969 0.891 1.969 1.969v8.016h-1.969z"></path>
</symbol>
<symbol id="icon-favorite" viewBox="0 0 24 24">
<title>favorite</title>
<path d="M12 21.328l-1.453-1.313c-5.156-4.688-8.531-7.734-8.531-11.531 0-3.094 2.391-5.484 5.484-5.484 1.734 0 3.422 0.844 4.5 2.109 1.078-1.266 2.766-2.109 4.5-2.109 3.094 0 5.484 2.391 5.484 5.484 0 3.797-3.375 6.891-8.531 11.578z"></path>
</symbol>
<symbol id="icon-favorite_border" viewBox="0 0 24 24">
<title>favorite_border</title>
<path d="M12.094 18.563c4.781-4.313 7.922-7.172 7.922-10.078 0-2.016-1.5-3.469-3.516-3.469-1.547 0-3.047 0.984-3.563 2.344h-1.875c-0.516-1.359-2.016-2.344-3.563-2.344-2.016 0-3.516 1.453-3.516 3.469 0 2.906 3.141 5.766 7.922 10.078l0.094 0.094zM16.5 3c3.094 0 5.484 2.391 5.484 5.484 0 3.797-3.375 6.844-8.531 11.531l-1.453 1.313-1.453-1.266c-5.156-4.688-8.531-7.781-8.531-11.578 0-3.094 2.391-5.484 5.484-5.484 1.734 0 3.422 0.844 4.5 2.109 1.078-1.266 2.766-2.109 4.5-2.109z"></path>
</symbol>
<symbol id="icon-lock" viewBox="0 0 24 24">
<title>lock</title>
<path d="M15.094 8.016v-2.016c0-1.688-1.406-3.094-3.094-3.094s-3.094 1.406-3.094 3.094v2.016h6.188zM12 17.016c1.078 0 2.016-0.938 2.016-2.016s-0.938-2.016-2.016-2.016-2.016 0.938-2.016 2.016 0.938 2.016 2.016 2.016zM18 8.016c1.078 0 2.016 0.891 2.016 1.969v10.031c0 1.078-0.938 1.969-2.016 1.969h-12c-1.078 0-2.016-0.891-2.016-1.969v-10.031c0-1.078 0.938-1.969 2.016-1.969h0.984v-2.016c0-2.766 2.25-5.016 5.016-5.016s5.016 2.25 5.016 5.016v2.016h0.984z"></path>
</symbol>
<symbol id="icon-language" viewBox="0 0 24 24">
<title>language</title>
<path d="M16.359 14.016h3.375c0.141-0.656 0.281-1.313 0.281-2.016s-0.141-1.359-0.281-2.016h-3.375c0.094 0.656 0.141 1.313 0.141 2.016s-0.047 1.359-0.141 2.016zM14.578 19.547c1.828-0.609 3.422-1.922 4.359-3.563h-2.953c-0.328 1.266-0.797 2.438-1.406 3.563zM14.344 14.016c0.094-0.656 0.141-1.313 0.141-2.016s-0.047-1.359-0.141-2.016h-4.688c-0.094 0.656-0.141 1.313-0.141 2.016s0.047 1.359 0.141 2.016h4.688zM12 19.969c0.844-1.219 1.5-2.531 1.922-3.984h-3.844c0.422 1.453 1.078 2.766 1.922 3.984zM8.016 8.016c0.328-1.266 0.797-2.438 1.406-3.563-1.828 0.609-3.422 1.922-4.359 3.563h2.953zM5.063 15.984c0.938 1.641 2.531 2.953 4.359 3.563-0.609-1.125-1.078-2.297-1.406-3.563h-2.953zM4.266 14.016h3.375c-0.094-0.656-0.141-1.313-0.141-2.016s0.047-1.359 0.141-2.016h-3.375c-0.141 0.656-0.281 1.313-0.281 2.016s0.141 1.359 0.281 2.016zM12 4.031c-0.844 1.219-1.5 2.531-1.922 3.984h3.844c-0.422-1.453-1.078-2.766-1.922-3.984zM18.938 8.016c-0.938-1.641-2.531-2.953-4.359-3.563 0.609 1.125 1.078 2.297 1.406 3.563h2.953zM12 2.016c5.531 0 9.984 4.453 9.984 9.984s-4.453 9.984-9.984 9.984-9.984-4.453-9.984-9.984 4.453-9.984 9.984-9.984z"></path>
</symbol>
<symbol id="icon-menu" viewBox="0 0 24 24">
<title>menu</title>
<path d="M3 6h18v2.016h-18v-2.016zM3 12.984v-1.969h18v1.969h-18zM3 18v-2.016h18v2.016h-18z"></path>
</symbol>
<symbol id="icon-person_outline" viewBox="0 0 24 24">
<title>person_outline</title>
<path d="M12 12.984c2.672 0 8.016 1.359 8.016 4.031v3h-16.031v-3c0-2.672 5.344-4.031 8.016-4.031zM12 3.984c2.203 0 3.984 1.828 3.984 4.031s-1.781 3.984-3.984 3.984-3.984-1.781-3.984-3.984 1.781-4.031 3.984-4.031zM12 14.906c-2.953 0-6.094 1.453-6.094 2.109v1.078h12.188v-1.078c0-0.656-3.141-2.109-6.094-2.109zM12 5.906c-1.172 0-2.109 0.938-2.109 2.109s0.938 2.063 2.109 2.063 2.109-0.891 2.109-2.063-0.938-2.109-2.109-2.109z"></path>
</symbol>
<symbol id="icon-pin_drop" viewBox="0 0 24 24">
<title>pin_drop</title>
<path d="M5.016 20.016h13.969v1.969h-13.969v-1.969zM9.984 8.016c0 1.078 0.938 1.969 2.016 1.969 1.125 0 2.016-0.891 2.016-1.969s-0.938-2.016-2.016-2.016-2.016 0.938-2.016 2.016zM18 8.016c0 4.5-6 10.969-6 10.969s-6-6.469-6-10.969c0-3.328 2.672-6 6-6s6 2.672 6 6z"></path>
</symbol>
<symbol id="icon-present_to_all" viewBox="0 0 24 24">
<title>present_to_all</title>
<path d="M9.984 12h-1.969l3.984-3.984 3.984 3.984h-1.969v3.984h-4.031v-3.984zM21 19.031v-14.063h-18v14.063h18zM21 3c1.125 0 2.016 0.891 2.016 2.016v13.969c0 1.125-0.891 2.016-2.016 2.016h-18c-1.125 0-2.016-0.891-2.016-2.016v-13.969c0-1.125 0.891-2.016 2.016-2.016h18z"></path>
</symbol>
<symbol id="icon-star_border" viewBox="0 0 24 24">
<title>star_border</title>
<path d="M12 15.422l3.75 2.25-0.984-4.266 3.328-2.906-4.406-0.375-1.688-4.031-1.688 4.031-4.406 0.375 3.328 2.906-0.984 4.266zM21.984 9.234l-5.438 4.734 1.641 7.031-6.188-3.75-6.188 3.75 1.641-7.031-5.438-4.734 7.172-0.609 2.813-6.609 2.813 6.609z"></path>
</symbol>
<symbol id="icon-vpn_key" viewBox="0 0 24 24">
<title>vpn_key</title>
<path d="M6.984 14.016c1.078 0 2.016-0.938 2.016-2.016s-0.938-2.016-2.016-2.016-1.969 0.938-1.969 2.016 0.891 2.016 1.969 2.016zM12.656 9.984h10.359v4.031h-2.016v3.984h-3.984v-3.984h-4.359c-0.797 2.344-3.047 3.984-5.672 3.984-3.328 0-6-2.672-6-6s2.672-6 6-6c2.625 0 4.875 1.641 5.672 3.984z"></path>
</symbol>
</defs>
</svg>
